<?xml version="1.0" encoding="utf-8"?>
<!-- Generator: Adobe Illustrator 16.0.0, SVG Export Plug-In . SVG Version: 6.00 Build 0)  -->
<!DOCTYPE svg PUBLIC "-//W3C//DTD SVG 1.1//EN" "http://www.w3.org/Graphics/SVG/1.1/DTD/svg11.dtd">
<svg version="1.1" id="Layer_1" xmlns="http://www.w3.org/2000/svg" xmlns:xlink="http://www.w3.org/1999/xlink" x="0px" y="0px"
	 width="1280px" height="800px" viewBox="0 0 1280 800" enable-background="new 0 0 1280 800" xml:space="preserve">
<path fill="#009C9F" d="M1013.246,472.703"/>
<linearGradient id="SVGID_1_" gradientUnits="userSpaceOnUse" x1="98.4277" y1="603.3281" x2="360.1382" y2="603.3281">
	<stop  offset="0" style="stop-color:#2E8B00"/>
	<stop  offset="1" style="stop-color:#00D065"/>
</linearGradient>
<path fill="url(#SVGID_1_)" d="M104.95,530.216c0,0,59.608,27.013,117.35,30.734c12.105,8.384,22.351,13.039,22.351,13.039
	s94.065,51.229,115.487,56.813l-0.929,6.519l-12.111,7.449l-11.175,5.591l-6.519,7.449l-12.108,1.863l-9.315,3.721l-7.448,10.253
	l-5.588,2.792l-7.451-0.935l-10.248-4.656h-15.831h-26.079l-12.107-0.929l-2.793-9.312l-0.932-17.695l2.795-12.11v-13.04
	l-0.935-8.383l-12.107,8.383l-13.968,11.176l-10.247,3.722l-25.146-2.787l-1.861-11.181l-11.176-8.383l-8.383-3.723h-9.314
	l1.863-6.519v-11.176l-6.52-7.448l-11.176-12.11l-8.38-16.767l-6.522-13.04v-8.383L104.95,530.216z"/>
<linearGradient id="SVGID_2_" gradientUnits="userSpaceOnUse" x1="104.9502" y1="391.7979" x2="784.8301" y2="391.7979">
	<stop  offset="0" style="stop-color:#2E8B00"/>
	<stop  offset="1" style="stop-color:#00D065"/>
</linearGradient>
<path fill="url(#SVGID_2_)" d="M104.95,518.105l17.692,11.182c0,0,81.96,25.144,100.587,25.144c3.724,0,9.311,4.661,9.311,4.661
	l11.179,7.449c0,0,104.311,56.807,115.49,57.742c11.175,0.935,11.175-3.722,11.175-3.722l6.517-5.591l6.52-6.52l11.175-1.864
	l13.039,3.723l13.042-5.586h8.381l6.519-2.798l2.792-7.442l12.108-2.799l15.834-0.929l3.724-8.383l5.588-3.728v-8.383l12.111-7.448
	l0.928-8.384l37.255-1.863l4.658,9.312l9.312,8.384l12.108,12.11l11.179-0.929l10.241,1.857h61.469l54.021-0.929l9.312-7.455
	l0.935-18.624l6.52-14.897l1.863-15.837l-5.591-13.039l-3.727-9.312l79.163-160.193l3.729-13.971l3.721-7.451l-14.897,3.725
	l-12.11-8.384l-12.104-10.241l-30.734-2.795l-9.312-13.971c0,0-18.63-25.643-20.494-26.078c-2.792,2.795-1.45-7.423-1.45-7.423
	l-0.643-12.951l-1.748-10.479l-6.863-0.814h-11.411l-15.136,0.233l-3.959,1.049l-6.287,8.612l-9.313,12.343l-4.309,6.866
	c0,0-1.861,9.083-1.979,9.547c-0.118,0.468-2.678,3.61-2.678,3.61l-5.823,2.445l-10.008-0.118l-7.219-5.355l-4.539-5.353
	l-6.173,1.161c0,0-5.238,3.378-5.588,3.61c-0.35,0.232-3.841,5.588-3.841,5.588l-0.465,9.315l-0.818,14.203l-5.47,1.049
	l-6.169,0.115c0,0-6.052-3.378-6.752-3.724c-0.7-0.35-4.191-3.96-4.191-3.96s-5.353-4.771-5.938-5.355
	c-0.582-0.582-4.539-5.705-4.539-5.705s-4.894-4.771-5.126-5.238s-2.675-4.542-2.675-4.542v-3.492l0.235-8.263l-0.7-16.184
	c0,0-1.167-6.287-1.281-6.637c-0.115-0.347-1.979-10.943-1.979-11.293c0-0.347-0.232-10.591-0.232-10.591s-0.588-8.618-1.052-9.548
	c-0.462-0.931-3.842-6.401-4.421-7.216c-0.582-0.817-4.309-7.687-4.309-7.687l-4.192-10.362c0,0-2.678-7.448-3.724-8.965
	c-1.05-1.514-3.839-7.333-4.075-7.683c-0.235-0.347-1.396-2.911-1.396-2.911l-10.829-0.115l-1.631-2.446l-3.375,1.05l-3.374,3.143
	l-8.501,3.724l-1.747,7.334l-5.82,6.405l-6.055,6.52l-8.263,1.164l-6.638,2.445l-5.355,4.192l-6.288,4.771l-8.5,9.083l-7.216,1.747
	l-6.753,1.513l-4.19-3.027l-0.35-4.188h-5.353l-4.077,0.811l-1.86,4.892l-7.916-0.118l-9.779-0.115l-3.142-2.213
	c0,0-2.446-3.259-2.795-3.61c-0.35-0.35-5.006-4.191-5.006-4.191l-3.959-3.028l-15.25-1.278l-0.467-22.119l-4.309-6.754
	l-2.558-3.842l-2.446-2.446l-5.473,4.192l-4.774,3.26l-2.675,5.008l-6.754,4.075l-5.706-7.216l-1.747-3.73l-3.374,5.01l-3.378,4.538
	l-18.159,0.118l-12.46-0.697l-17.693-0.467c0,0-3.727,0.932-4.074,1.046c-0.35,0.118-5.126,2.678-5.126,2.678
	s-1.625,3.61-1.511,3.959c0.115,0.35,0.932,7.565,0.932,7.565l0.579,5.356c0,0,1.164,1.979,2.795,2.095
	c1.631,0.118,6.984,0.118,6.984,0.118s6.64,0.35,7.219,0.35c0.582,0,3.028,1.979,3.028,1.979s2.442,1.979,2.678,2.446
	c0.232,0.467,2.792,4.655,2.792,4.655l1.05,5.241c0,0,0,4.889,0,5.238s-1.164,4.656-1.164,4.656h-4.076l-7.217,0.464l-1.864-1.86
	l-6.17-0.467l-5.47,2.213l-7.219,0.35l0.118,6.52l-0.232,20.256l3.492,3.374c0,0,4.189,2.329,4.656,2.796
	c0.465,0.467,3.26,2.448,3.959,3.027c0.696,0.583,3.492,1.631,3.492,1.631l0.582,9.895l-0.696,4.773l5.003,6.691l2.27,6.463
	l-2.095,25.496v11.7c0,0-2.967,9.08-2.967,10.651c0,1.572-4.017,11.35-4.017,11.35l-0.176,11.701c0,0-2.27,3.492-2.445,4.716
	c-0.175,1.222-0.524,15.717-0.524,15.717s-2.618,6.984-2.793,8.034c-0.175,1.046,0,10.125,0,10.125s-3.841,11.699-4.366,12.575
	c-0.525,0.872-3.842,6.285-4.542,6.463c-0.696,0.172-7.333-0.178-8.205-0.178c-0.874,0-7.684-2.442-8.208-2.965
	c-0.524-0.527-3.667-2.626-3.667-2.626h-7.859l-5.938,2.271l-2.446,4.37l-9.254,3.669l-13.097,1.216l-11.875,0.355l-6.985,2.971
	l-8.034,4.714l-5.588,4.186c0,0-8.733,5.939-8.733,6.468c0,0.516-7.683,9.948-8.38,10.825c-0.699,0.872-2.97,8.728-2.97,8.728
	l-1.222,5.591l-3.842,5.413c0,0-3.145,4.713-3.317,5.235c-0.175,0.527,1.046,8.039,1.046,8.039l1.222,5.058l-3.493,9.254
	l-6.459,5.94c0,0-7.162,3.843-7.162,4.542C109.371,510.95,104.95,518.105,104.95,518.105z"/>
<linearGradient id="SVGID_3_" gradientUnits="userSpaceOnUse" x1="457.2329" y1="163.6123" x2="677.2598" y2="163.6123">
	<stop  offset="0" style="stop-color:#2E8B00"/>
	<stop  offset="1" style="stop-color:#00D065"/>
</linearGradient>
<path fill="url(#SVGID_3_)" d="M458.279,72.805c1.397,0,14.668,0,14.668,0l6.287,6.638l6.287,4.888l13.272,1.399l9.079,1.046
	l3.492,6.985l7.687,0.699h8.73l3.492-5.238l1.05-7.684l6.284-3.491l8.733-2.446h13.622l5.938-1.746l8.381-5.938l8.033-4.191
	l6.638-3.143l9.779-1.049l6.984-8.381l7.333-9.432l1.05-6.984l15.367,0.699l3.492,6.984l-3.492,5.938l-2.796,5.587l0.35,6.984
	l6.984,1.049l7.333,3.143l4.891,8.034l2.793,6.287l-1.745,6.288l-5.238,5.237l-1.396,6.634l-3.492,11.526l0.346,5.587l-2.093,4.542
	v13.271l0.347,6.987l3.842,5.238l3.495,6.984l0.347,10.829l5.241,3.142l8.378,7.333l4.541,6.288l10.826,6.984l3.148,4.191
	l0.693,20.605v11.525l-4.886,2.096h-15.366l-15.019-0.347c0,0-3.146,3.492-4.541,3.842c-1.396,0.347-9.081,9.43-9.081,9.43
	l-3.492,7.333v4.192l-3.495,2.793l-2.792,3.491l-3.492,4.891l-0.699,6.288l-2.096,3.142l-5.238,1.046l-3.146-3.143l-3.143-4.191
	l-7.333-4.539l-5.588-2.096l-6.288,1.397l-4.887,4.541l-4.892,3.493l-5.238,6.633l-1.049,17.463l-2.442,2.095l-5.241-3.491
	l-8.031-9.779l-4.891-5.588l-2.793-2.796l4.189-5.937v-6.634l-1.396-3.842l-3.143-5.238l-1.049-6.638l-1.046-8.729l-1.05-7.337
	l-0.696-11.873v-12.924l-3.493-6.285l-4.191-4.891l-3.492-5.938l-3.843-8.034l-2.795-6.984l-3.842-8.733l-1.396-3.842l-5.588-4.888
	h-3.145l0.35-13.272c0,0-5.588,0-6.638-0.35c-1.045-0.35-9.429-0.35-9.429-0.35l-4.539,0.35l-7.333-1.397l-2.446-1.396h-3.145
	c0,0-1.047-28.291-1.047-29.338c0-1.049,4.192-5.937,4.192-5.937l2.446-3.841V86.077l-8.383-5.588l-5.588-1.746l-5.238-1.746
	l-2.096-2.793L458.279,72.805z"/>
<linearGradient id="SVGID_4_" gradientUnits="userSpaceOnUse" x1="687.042" y1="381.374" x2="1178.7939" y2="381.374">
	<stop  offset="0" style="stop-color:#00D065"/>
	<stop  offset="1" style="stop-color:#2E8B00"/>
</linearGradient>
<path fill="url(#SVGID_4_)" d="M687.393,195.743l-0.351,26.546l0.7,11.176c0,0,2.098,17.462,2.098,19.209
	c0,1.746,2.093,9.079,2.093,9.079l6.285,4.542l3.491,4.191l1.749,8.03l4.536,5.938l5.939,6.987l5.586,5.938l6.99,0.696l6.634,0.7
	l2.442,1.046l5.591-2.096l4.892,0.35l5.24,3.492l5.936,6.987l7.334,2.792l7.683,4.541l7.335,0.351l3.841-3.492l5.936-1.05
	l6.64,3.492l-0.699,5.588l-0.7,5.938l-3.492,1.399l-3.491,8.38l-2.1,8.034l-5.234,5.938l-7.685,19.559l-65.31,132.016l0.35,5.24
	l4.885,5.94l0.699,5.586c0,0,4.542,4.19,4.191,5.24c-0.35,1.043,0,9.083,0,9.083l4.192,4.541l3.142,4.535l3.143,9.083l4.541,5.235
	l1.05,9.433l0.35,13.974l8.033,5.936l9.433,7.684l6.285,6.634l7.684,6.64l5.24,1.394l14.669,1.05l19.552,2.093l5.241,2.093
	l49.6,2.099l46.446,0.35l30.734,2.448h31.085l42.259,1.743l12.574,0.35l4.542-11.524l10.477-17.117c0,0,7.683-7.683,8.733-8.383
	c1.049-0.699,6.283-6.984,6.283-6.984l3.842-10.476l1.05-10.826l-1.4-7.333l-3.841-4.192l1.049-10.831l4.192-5.936l1.743-8.032
	l2.099-7.685c0,0,2.792-1.743,4.542-2.792c1.743-1.05,10.826-8.733,10.826-8.733l6.982-4.186l3.493-5.241l5.591-10.126l0.35-9.433
	l-0.35-9.083l-3.843-0.693l-6.982-3.147l-2.799-6.985l8.732-10.476l22.352-19.21l11.875-5.24l8.732-11.176l17.461-27.942
	l12.225-16.414l0.699-11.525l2.792-6.987l4.543-8.03l4.89-11.525l1.745-17.463l3.491-4.542v-11.175l-6.285-3.842h-10.826
	l-3.142-5.587c0,0-10.831-1.396-12.576-2.096c-1.748-0.7-8.731-1.397-8.731-1.397l-10.126-1.049l-9.083-1.746l-5.936,0.699
	l-4.19,4.191l-21.657,23.397l-12.221,15.021l-9.431,5.238l-10.127,0.35l-5.591-3.495l-4.892,0.35l-2.793,4.191l-2.093,4.192
	l-6.29-2.446l-5.935-4.888l-16.767-3.146c0,0-5.234-2.442-6.284-3.142s-5.59-6.985-5.59-6.985l-5.236-11.525l-2.798-2.445h-8.033
	l-10.826,6.634l-10.127,4.891l-16.066,3.143l-4.191-4.192l2.099-7.683l9.077-1.746l-0.699-4.189l-10.477-1.398
	c0,0-5.584-5.938-6.984-6.635c-1.399-0.699-6.634-9.083-6.634-9.083l-1.399-8.729l-5.24-6.638l-10.826-15.018
	c0,0-1.743-9.079-3.492-11.875c-1.749-2.792-2.793-8.38-2.793-10.476c0-2.095-4.541-8.383-6.64-10.129
	c-2.093-1.746-4.187-10.129-5.585-12.226c-1.398-2.093-6.984-6.984-6.984-6.984l-10.825-6.287l-11.182-8.034
	c0,0-8.378-1.746-9.777-2.792c-1.394-1.05-9.432-4.192-10.126-5.588c-0.699-1.396-2.093-10.479-2.093-10.479l-1.055-9.779
	l-4.187-5.238c0,0-7.683,0-8.732,0s-9.077,2.446-9.077,2.446l-4.197,3.142h-9.083l-4.885-1.046l-1.044,4.538l0.345,7.684v6.986
	l-1.044,3.143h-9.433h-5.935l-16.423-1.396l-8.377,0.697c0,0-9.434-0.697-11.176-0.347c-1.75,0.347-11.875,6.984-11.875,6.984
	l-9.084,3.492l-9.433,4.542l-15.366,5.238l-7.328,5.238L687.393,195.743z"/>
<linearGradient id="SVGID_5_" gradientUnits="userSpaceOnUse" x1="847.3545" y1="179.3291" x2="1031.0615" y2="179.3291">
	<stop  offset="0" style="stop-color:#00D065"/>
	<stop  offset="1" style="stop-color:#2E8B00"/>
</linearGradient>
<path fill="url(#SVGID_5_)" d="M851.54,152.787l10.481,3.492l6.984,1.397l6.285-1.047l2.798-3.146l8.727-0.35h7.341l6.283,3.146
	l6.636,0.697l9.082-0.347l9.077-5.938c0,0,3.842-5.938,4.891-7.683s7.685-17.463,7.685-17.463l9.775-16.763l9.083-13.971
	l9.433-11.525l7.334-6.287l6.284,4.89l4.542,5.589c0,0,0.699,7.333,0.699,8.729s0.351,17.813,0.351,17.813l1.742,5.238l3.842,5.938
	c0,0,2.792,3.142,2.792,4.888c0,1.749,1.399,10.129,1.049,11.179c-0.35,1.045,2.45,12.571,2.45,12.571l3.142,6.287l6.635,6.984
	l7.333,5.588l8.383,1.399l4.192,4.188l4.191,6.987l-1.049,8.381c0,0-3.492,1.399-4.542,2.795s-9.076,9.43-12.918,12.922
	c-3.843,3.495-10.482,13.271-10.482,13.271l-9.777,8.034c0,0-6.982,4.891-9.781,5.938c-2.793,1.05-6.984,5.238-6.984,6.288
	c0,1.046-4.541,11.525-4.541,11.525l-5.235,7.333l-6.29,8.034l-2.442,9.78c0,0-1.75,2.095-3.843,2.095s-7.684,0-7.684,0
	s-2.793-4.541-3.842-5.588c-1.049-1.049-4.541-7.336-5.59-10.479c-1.044-3.142-6.285-11.525-6.285-11.525s-3.492-5.587-5.241-8.034
	c-1.743-2.442-5.234-9.43-6.984-11.175c-1.742-1.746-4.885-5.938-4.885-5.938s-0.7-7.684-1.05-9.43s-3.491-12.226-5.934-14.321
	c-2.449-2.093-6.641-13.618-7.685-14.668c-1.055-1.046-3.147-6.634-6.29-7.683c-3.142-1.047-7.684-2.795-10.477-4.542
	c-2.797-1.746-8.732-3.841-10.481-4.188c-1.743-0.35-5.235-4.542-9.077-5.241c-3.842-0.697-5.935-2.442-7.684-3.842
	c-1.749-1.396-6.634-6.285-6.634-8.73C847.354,153.833,851.54,152.787,851.54,152.787z"/>
<linearGradient id="SVGID_6_" gradientUnits="userSpaceOnUse" x1="376.9014" y1="666.1934" x2="637.2158" y2="666.1934">
	<stop  offset="0" style="stop-color:#2E8B00"/>
	<stop  offset="1" style="stop-color:#00D065"/>
</linearGradient>
<path fill="url(#SVGID_6_)" d="M605.317,771.665c0,0-13.272-2.442-15.367-2.442c-2.096,0-14.321,0.35-16.766,0
	c-2.443-0.345-11.873-1.044-11.873-1.044l-8.383-5.591l-3.841-6.634l-5.238-2.799l-12.925-2.093l-8.381-1.748l-4.89-4.543
	l-4.539-5.584l-2.796-5.241l-3.842-2.442l-6.638,2.799h-5.934l-3.842-3.499l-5.241-3.142l-5.938-0.35l-12.223,1.398l-8.383-3.841
	l-6.984-8.034l-9.779-8.732l-5.588-5.591l-5.241-7.328l-3.842-11.525l0.7-15.723l-2.096-7.328l-1.746-9.084l4.541-4.19l0.348-18.16
	l-3.143-6.641h-8.034c0,0-13.968,0.35-16.064,0.35c-2.095,0-14.321,3.149-14.321,3.149l-8.382,2.442l-1.747-2.442l2.795-3.843
	l4.192-4.541c0,0,5.588-1.049,6.634-1.049c1.049,0,8.733,0,8.733,0l10.826-0.35l11.176-2.1h12.924l5.238-3.485l4.888-6.641
	l4.192-4.541h18.162c0,0,5.238-0.345,5.938-2.093c0.697-1.749,1.396-8.034,1.396-8.034l6.287-3.842l1.396-8.033l3.143-4.191
	l5.938-0.351l4.541-8.376l4.538-3.843l6.638,0.344h10.826l6.638,5.242l10.129,6.633l6.634,7.335l6.637,6.983l5.238,3.498
	l4.892,0.699l4.188-1.055h5.241l3.259,9.203l-0.931,5.12l1.398,6.984l0.93,6.52l-0.467,11.646l-2.325,8.378l1.395,11.646l0.93,6.05
	v6.055l-0.462,8.848l1.861,2.328l0.933,4.656l12.575-0.928l16.763,0.464h16.299l1.864,5.591l8.845,1.398l5.124,2.322l-0.932,4.192
	l-5.123,5.584l-0.465,6.526l3.26,8.842l5.121,8.853l0.467,17.23l-4.192,4.651l-8.38,12.11L605.317,771.665z"/>
<linearGradient id="SVGID_7_" gradientUnits="userSpaceOnUse" x1="1011.8525" y1="606.8193" x2="1189.2754" y2="606.8193">
	<stop  offset="0" style="stop-color:#00D065"/>
	<stop  offset="1" style="stop-color:#2E8B00"/>
</linearGradient>
<path fill="url(#SVGID_7_)" d="M1091.481,451.051l10.476,1.399l8.384,3.487l10.476,4.196l3.497,6.984l3.493,13.968l-1.398,15.367
	l-0.699,13.969l-2.794,6.984l-2.792,6.989l0.693,7.685l8.384,5.59l4.89,6.984l6.286,7.684l10.481,4.885h10.476l2.792,7.685
	l-3.491,6.284l-6.983,3.497l-4.892,6.285l-1.394,7.684l-1.4,7.684l3.493,5.585l6.284,8.384l4.192,6.29l1.398,7.684l2.093,6.284
	l4.893,7.684l4.19,3.492l6.285,4.191l7.685,1.399l2.797,4.19l-4.892,3.493l-6.284,6.983l-4.192,6.29l-4.89,8.384l-0.699,10.471
	v6.291l8.383,5.589c0,0,0.699,1.394,0,4.187c-0.699,2.799,0,14.668,0,14.668l-3.493,4.897v8.376l2.794,4.893l-0.699,8.383
	l-5.586,0.699l-16.767,6.983l-11.875,2.794l-13.968,2.093l-7.685,1.398l-1.398,4.191l-10.476-5.59l-6.985-2.794l-6.29-2.792
	l-6.983-4.191l-5.586-5.591h-5.589l-11.176,0.699l-7.685,5.591l-3.491,6.985l-8.385-2.794l-6.983-2.797l-4.892-5.585l-6.284-11.177
	c0,0,1.394-5.59-1.399-5.59s-10.476,5.59-10.476,5.59l-3.492-12.574v-23.051l2.793-25.149l6.983-20.254l6.291-11.874l2.792-12.574
	l1.399-14.669l4.187-8.383l11.181-11.876l5.584-5.59l5.592-8.377l4.19-9.083l2.794-11.876v-8.382l-2.794-9.777l0.694-10.477
	l2.799-11.874l10.477-5.592l9.776-8.383l6.99-7.684l4.186-10.477l2.797-11.875v-10.477l-6.29-7.683L1091.481,451.051z"/>
<linearGradient id="SVGID_8_" gradientUnits="userSpaceOnUse" x1="1016.7383" y1="277.8203" x2="1088.6885" y2="277.8203">
	<stop  offset="0" style="stop-color:#2E8B00"/>
	<stop  offset="1" style="stop-color:#00D065"/>
</linearGradient>
<path fill="url(#SVGID_8_)" d="M1019.536,305.062l4.191-2.795l5.585-1.397l3.492,1.397l4.192,2.096l4.89-2.796l4.193-4.188
	l4.89-2.795l4.885,2.096l3.493-2.096l6.291-5.588l7.682-0.699l6.286-9.08l5.589-8.384l1.396-6.983l2.098-6.985l-11.175-0.699
	l-7.685-1.396h-9.782l-4.885,0.697h-9.783l-6.284-2.096l-8.383-2.792l-6.984,1.397l-2.798,7.683l-0.694,6.287l-0.699,7.684
	c0,0,1.394,7.683,0,9.779c-1.398,2.095-2.099,11.176-2.099,11.176l-0.699,9.779L1019.536,305.062z"/>
<linearGradient id="SVGID_9_" gradientUnits="userSpaceOnUse" x1="1042.5859" y1="240.7979" x2="1055.1621" y2="240.7979">
	<stop  offset="0" style="stop-color:#2E8B00"/>
	<stop  offset="1" style="stop-color:#00D065"/>
</linearGradient>
<polygon fill="url(#SVGID_9_)" points="1048.173,246.386 1055.162,241.499 1052.363,235.21 1046.779,235.911 1042.586,242.895 "/>
<linearGradient id="SVGID_10_" gradientUnits="userSpaceOnUse" x1="1020.9297" y1="231.7168" x2="1041.8867" y2="231.7168">
	<stop  offset="0" style="stop-color:#2E8B00"/>
	<stop  offset="1" style="stop-color:#00D065"/>
</linearGradient>
<path fill="url(#SVGID_10_)" d="M1041.887,226.13l-3.491,9.08l-0.699,4.888c0,0-4.192-1.396-6.285-1.396
	c-2.099,0-10.481-1.397-10.481-1.397l3.491-6.287l6.291-7.683L1041.887,226.13z"/>
<linearGradient id="SVGID_11_" gradientUnits="userSpaceOnUse" x1="990.8945" y1="248.8306" x2="1007.6611" y2="248.8306">
	<stop  offset="0" style="stop-color:#2E8B00"/>
	<stop  offset="1" style="stop-color:#00D065"/>
</linearGradient>
<polygon fill="url(#SVGID_11_)" points="999.978,251.277 992.293,259.658 990.895,251.277 992.993,242.194 1000.677,238.003 
	1007.661,238.003 1007.661,242.194 1004.869,248.482 "/>
<linearGradient id="SVGID_12_" gradientUnits="userSpaceOnUse" x1="960.8594" y1="279.9141" x2="979.0195" y2="279.9141">
	<stop  offset="0" style="stop-color:#2E8B00"/>
	<stop  offset="1" style="stop-color:#00D065"/>
</linearGradient>
<polygon fill="url(#SVGID_12_)" points="979.02,272.929 972.734,279.916 967.145,288.996 960.859,292.487 965.051,281.312 
	971.336,270.136 976.227,267.341 "/>
<linearGradient id="SVGID_13_" gradientUnits="userSpaceOnUse" x1="996.4854" y1="274.3271" x2="1012.5527" y2="274.3271">
	<stop  offset="0" style="stop-color:#2E8B00"/>
	<stop  offset="1" style="stop-color:#00D065"/>
</linearGradient>
<polygon fill="url(#SVGID_13_)" points="1004.169,270.833 999.278,272.233 996.485,275.724 1000.677,277.121 1004.869,279.217 
	1012.553,275.025 1007.661,269.437 "/>
<linearGradient id="SVGID_14_" gradientUnits="userSpaceOnUse" x1="1006.9619" y1="252.6738" x2="1013.2461" y2="252.6738">
	<stop  offset="0" style="stop-color:#2E8B00"/>
	<stop  offset="1" style="stop-color:#00D065"/>
</linearGradient>
<polygon fill="url(#SVGID_14_)" points="1006.962,256.865 1012.553,256.865 1013.246,248.482 1008.36,250.578 "/>
<linearGradient id="SVGID_15_" gradientUnits="userSpaceOnUse" x1="1002.7695" y1="291.4404" x2="1010.4531" y2="291.4404">
	<stop  offset="0" style="stop-color:#2E8B00"/>
	<stop  offset="1" style="stop-color:#00D065"/>
</linearGradient>
<polygon fill="url(#SVGID_15_)" points="1010.453,291.091 1009.754,296.68 1003.469,296.68 1002.77,290.392 1003.469,286.2 
	1007.661,286.2 "/>
<text transform="matrix(1 0 0 1 391.3418 427.2949)" font-family="'Swiss721BT-Roman'" font-size="44.7049">AM</text>
<text transform="matrix(1 0 0 1 556.1904 178.626)" font-family="'Swiss721BT-Roman'" font-size="44.7049">RR</text>
<text transform="matrix(1 0 0 1 930.5908 199.5781)" font-family="'Swiss721BT-Roman'" font-size="44.7049">AP</text>
<text transform="matrix(1 0 0 1 883.0947 445.4561)" font-family="'Swiss721BT-Roman'" font-size="44.7049">PA</text>
</svg>
